<?xml version="1.0" encoding="UTF-8" standalone="no"?>
<svg width="473px" height="962px" viewBox="0 0 473 962" version="1.1" xmlns="http://www.w3.org/2000/svg" xmlns:xlink="http://www.w3.org/1999/xlink">
    <!-- Generator: sketchtool 39.1 (31720) - http://www.bohemiancoding.com/sketch -->
    <title>0F9A69F2-3790-4753-8D5A-243B871B0F17</title>
    <desc>Created with sketchtool.</desc>
    <defs>
        <polygon id="path-1" points="176.358582 0.607955947 0.462397959 0.607955947 0.462397959 60.9763559 176.358582 60.9763559 176.358582 0.607955947"></polygon>
    </defs>
    <g id="Page-1" stroke="none" stroke-width="1" fill="none" fill-rule="evenodd" opacity="0.0973064366">
        <g id="2-player-mode" transform="translate(-724.000000, -118.000000)">
            <g id="Background" transform="translate(0.000000, 81.000000)">
                <g id="IGC-logo" transform="translate(733.000000, 45.000000)">
                    <path d="M226.786918,447.275762 C226.786918,447.275762 203.175959,411.380352 156.800959,410.038731 C156.800959,410.038731 102.694449,406.307551 75.7336735,461.687894 C75.7336735,461.687894 51.5808163,506.392705 88.6429592,553.249744 C88.6429592,553.249744 118.730735,592.283551 171.297,582.783833 C171.297,582.783833 196.853816,577.20711 213.63751,561.737286 L166.992102,499.367075 L151.09751,511.285612 L183.117082,553.840361 L183.964,555.111542 C183.964,555.111542 143.289204,577.927771 107.36602,542.84622 C71.4428367,507.765753 96.0835102,464.337542 96.0835102,464.337542 C96.0835102,464.337542 114.525347,430.156546 153.015245,429.857445 C191.504061,429.558344 215.209122,464.778608 215.209122,464.778608 L256.26249,518.563744 L272.158163,506.6257" id="Fill-1" fill="#FEFEFE"></path>
                    <path d="M182.035016,486.885663 L197.989098,474.803487 L240.492935,530.61406 C240.492935,530.61406 266.186037,569.270738 309.156057,562.946263 C309.156057,562.946263 343.867812,559.623637 359.625037,526.289011 C359.625037,526.289011 384.310057,474.70487 335.904833,441.656342 C335.904833,441.656342 304.130792,418.678641 265.709037,440.870659 C265.709037,440.870659 256.384282,447.160456 252.650486,451.374967 L238.448649,434.147381 C238.448649,434.147381 267.529424,403.758254 312.937445,411.465531 C312.937445,411.465531 348.421486,416.256571 370.148241,448.284254 C370.148241,448.284254 385.261894,469.332967 385.233771,495.999584 C385.233771,495.999584 386.106649,526.890465 367.043955,550.697196 C367.043955,550.697196 348.390118,576.17391 316.908118,582.472377 C316.908118,582.472377 285.234669,590.709584 255.224771,573.056104 C255.224771,573.056104 239.091139,563.304967 228.734506,549.64384 L182.035016,486.885663 Z" id="Fill-3" fill="#FEFEFE"></path>
                    <g id="Group-7" transform="translate(138.306122, 339.475744)">
                        <mask id="mask-2" fill="white">
                            <use xlink:href="#path-1"></use>
                        </mask>
                        <g id="Clip-6"></g>
                        <path d="M0.462397959,60.9763559 L21.8073367,60.9763559 C21.8073367,60.9763559 42.034949,15.4435982 94.0290306,17.6846907 C94.0290306,17.6846907 134.100276,19.8585938 155.076378,60.9763559 L176.358582,60.9763559 C176.358582,60.9763559 154.062888,0.447351542 90.2454796,0.697686344 C90.2454796,0.697686344 28.0386224,-4.34368811 0.462397959,60.9763559" id="Fill-5" fill="#FEFEFE" mask="url(#mask-2)"></path>
                    </g>
                    <circle id="Oval" stroke="#FFFFFF" stroke-width="17" cx="227.5" cy="473.5" r="227.5"></circle>
                    <path d="M225.5,0.5 L225.5,239.550598" id="Line" stroke="#FFFFFF" stroke-width="17" stroke-linecap="square"></path>
                    <path d="M229.5,715.5 L229.5,954.550598" id="Line-Copy" stroke="#FFFFFF" stroke-width="17" stroke-linecap="square"></path>
                </g>
            </g>
        </g>
    </g>
</svg>